HIERARCHY
ROOT Hips
{
 OFFSET 0.000000 0.000000 0.000000
 CHANNELS 6 Xposition Yposition Zposition Yrotation Xrotation Zrotation
 JOINT Chest
 {
  OFFSET 0.000000 9.585900 0.002600
  CHANNELS 3 Yrotation Xrotation Zrotation
  JOINT Chest2
  {
   OFFSET 0.000000 9.601200 -0.005300
   CHANNELS 3 Yrotation Xrotation Zrotation
   JOINT Chest3
   {
    OFFSET 0.000000 9.561800 0.000000
    CHANNELS 3 Yrotation Xrotation Zrotation
    JOINT Chest4
    {
     OFFSET 0.000000 9.552100 0.000000
     CHANNELS 3 Yrotation Xrotation Zrotation
     JOINT Neck
     {
      OFFSET 0.000000 14.453000 0.000000
      CHANNELS 3 Yrotation Xrotation Zrotation
      JOINT Head
      {
       OFFSET 0.000000 8.936500 -0.011300
       CHANNELS 3 Yrotation Xrotation Zrotation
       End Site
       {
        OFFSET 0.000000 17.073600 -0.006000
       }
      }
     }
     JOINT RightCollar
     {
      OFFSET -2.921100 9.558500 0.000000
      CHANNELS 3 Yrotation Xrotation Zrotation
      JOINT RightShoulder
      {
       OFFSET -13.519700 0.000000 0.000000
       CHANNELS 3 Yrotation Xrotation Zrotation
       JOINT RightElbow
       {
        OFFSET 0.000000 -29.696600 0.000000
        CHANNELS 3 Yrotation Xrotation Zrotation
        JOINT RightWrist
        {
         OFFSET 0.000000 -24.004700 0.000000
         CHANNELS 3 Yrotation Xrotation Zrotation
         End Site
         {
          OFFSET 0.000000 -17.728500 0.000000
         }
        }
       }
      }
     }
     JOINT LeftCollar
     {
      OFFSET 2.921100 9.558500 0.000000
      CHANNELS 3 Yrotation Xrotation Zrotation
      JOINT LeftShoulder
      {
       OFFSET 13.519700 0.000000 0.000000
       CHANNELS 3 Yrotation Xrotation Zrotation
       JOINT LeftElbow
       {
        OFFSET 0.000000 -29.696600 0.000000
        CHANNELS 3 Yrotation Xrotation Zrotation
        JOINT LeftWrist
        {
         OFFSET 0.000000 -24.004700 0.000000
         CHANNELS 3 Yrotation Xrotation Zrotation
         End Site
         {
          OFFSET 0.000000 -17.728500 0.000000
         }
        }
       }
      }
     }
    }
   }
  }
 }
 JOINT RightHip
 {
  OFFSET -7.771700 -0.012900 -0.001300
  CHANNELS 3 Yrotation Xrotation Zrotation
  JOINT RightKnee
  {
   OFFSET 0.000000 -40.869800 0.001200
   CHANNELS 3 Yrotation Xrotation Zrotation
   JOINT RightAnkle
   {
    OFFSET 0.000000 -39.717900 0.002100
    CHANNELS 3 Yrotation Xrotation Zrotation
    JOINT RightToe
    {
     OFFSET 0.000000 -4.965400 11.033500
     CHANNELS 3 Yrotation Xrotation Zrotation
     End Site
     {
      OFFSET 0.000000 -1.423100 5.872300
     }
    }
   }
  }
 }
 JOINT LeftHip
 {
  OFFSET 7.771700 -0.012900 -0.001300
  CHANNELS 3 Yrotation Xrotation Zrotation
  JOINT LeftKnee
  {
   OFFSET 0.000000 -40.869800 0.001200
   CHANNELS 3 Yrotation Xrotation Zrotation
   JOINT LeftAnkle
   {
    OFFSET 0.000000 -39.717900 0.002100
    CHANNELS 3 Yrotation Xrotation Zrotation
    JOINT LeftToe
    {
     OFFSET 0.000000 -4.965400 11.033500
     CHANNELS 3 Yrotation Xrotation Zrotation
     End Site
     {
      OFFSET 0.000000 -1.423100 5.872300
     }
    }
   }
  }
 }
}
MOTION
Frames: 5
Frame Time: 0.008333
-7.539756 52.481640 29.478254 173.113300 -38.561793 -1.440874 3.395128 22.150730 1.977193 0.367794 3.104146 0.356362 0.626884 5.011935 0.582355 2.611753 18.683945 2.530186 1.600309 15.659574 -1.686773 3.548924 -6.603619 -3.701425 -5.703667 -1.288197 -3.182826 -8.059551 -3.678772 3.840357 -109.442346 -64.780715 135.391756 -3.965217 -3.706120 4.582162 -6.465128 0.595847 0.222321 17.425134 -5.605214 3.266073 117.955904 -55.912894 -147.185361 0.391967 -1.458380 2.719597 -3.238965 -42.750672 1.249540 -143.380765 85.986995 -138.126242 1.663856 -10.200649 -3.569270 0.374282 -0.704194 0.167290 0.181919 -39.071615 3.948220 69.800581 83.304664 58.841886 -6.528552 -12.459702 10.170854 0.377464 1.382657 0.156899
-7.542854 52.475369 29.476077 173.111999 -38.556320 -1.440318 3.400651 22.140392 1.976455 0.374056 3.097006 0.354456 0.622924 5.017479 0.587009 2.631196 18.666950 2.531558 1.612971 15.732144 -1.637317 3.563428 -6.485829 -3.630508 -5.746610 -1.144531 -3.108206 -8.163536 -3.762176 3.790230 -110.770939 -64.616835 136.868363 -3.824900 -3.671690 4.973667 -6.483470 0.691726 0.223676 17.529120 -5.628596 3.193539 118.669683 -55.638108 -148.024016 0.411305 -1.716809 2.558431 -3.253229 -42.753050 1.257243 -143.356777 85.987620 -138.114862 1.667413 -10.203079 -3.564761 0.373731 -0.703574 0.164642 0.166942 -39.075934 3.938875 69.878310 83.286163 58.917946 -6.524217 -12.456812 10.183941 0.371983 1.378632 0.139774
-7.545967 52.469272 29.474053 173.112904 -38.548409 -1.443634 3.409599 22.126395 1.983125 0.377262 3.096248 0.357787 0.616638 5.019427 0.584717 2.645069 18.658357 2.537949 1.628858 15.802499 -1.589109 3.580458 -6.367019 -3.563046 -5.771721 -1.034462 -3.060439 -8.255827 -3.816088 3.760271 -111.985043 -64.434565 138.217883 -3.712133 -3.645070 5.315202 -6.481719 0.777159 0.220027 17.622242 -5.650779 3.123050 119.341066 -55.377707 -148.817010 0.414325 -1.936940 2.371661 -3.267862 -42.758819 1.266580 -143.362589 85.987635 -138.130116 1.664684 -10.201374 -3.559803 0.373289 -0.708295 0.163031 0.155695 -39.082721 3.935913 69.925993 83.274798 58.967432 -6.530505 -12.453592 10.179271 0.379723 1.375951 0.145407
-7.542878 52.465568 29.470425 173.100424 -38.557717 -1.475493 3.439649 22.139652 2.032700 0.377001 3.094138 0.358995 0.614468 5.012305 0.582006 2.670850 18.656390 2.574443 1.631322 15.874130 -1.567705 3.598692 -6.244037 -3.503113 -5.793721 -0.934750 -3.043909 -8.332557 -3.866726 3.736737 -113.081093 -64.238533 139.437150 -3.631594 -3.624920 5.601728 -6.498113 0.855746 0.189946 17.717424 -5.674093 3.057704 119.952528 -55.127144 -149.543614 0.409513 -2.132339 2.177390 -3.305322 -42.738162 1.321506 -143.255778 85.994547 -138.027410 1.685197 -10.199732 -3.552383 0.356355 -0.710267 0.151227 0.125165 -39.076056 3.973139 69.994874 83.277754 59.071121 -6.550442 -12.463639 10.132067 0.422904 1.381830 0.170202
-7.544775 52.460198 29.468659 173.095844 -38.546203 -1.484081 3.445689 22.136127 2.050705 0.377746 3.094483 0.361306 0.624359 5.007119 0.582977 2.665863 18.655258 2.577757 1.640358 15.908227 -1.552084 3.641931 -6.072978 -3.434901 -5.789315 -0.837753 -3.007524 -8.388357 -3.916098 3.717523 -114.049407 -64.033996 140.517390 -3.580856 -3.612589 5.832650 -6.506686 0.927982 0.181640 17.789105 -5.704221 3.006984 120.488852 -54.891495 -150.165565 0.408027 -2.314039 1.989457 -3.314537 -42.746700 1.337195 -143.173720 85.992823 -137.947681 1.691018 -10.194846 -3.546742 0.355870 -0.716054 0.149556 0.099665 -39.088139 3.984822 70.053407 83.272492 59.127573 -6.548090 -12.460202 10.137802 0.429289 1.377136 0.161847
